<svg xmlns="http://www.w3.org/2000/svg" xmlns:xlink="http://www.w3.org/1999/xlink" version="1.1" id="Layer_1" x="0px" y="0px" viewBox="0 0 1080 1080" style="enable-background:new 0 0 1080 1080;" xml:space="preserve">
<style xmlns="http://www.w3.org/2000/svg" type="text/css">
	.st0{fill:none;stroke:#C1C1C1;stroke-miterlimit:10;stroke-dasharray:11.9518,11.9518;}
	.st1{fill:#F7F7F7;}
	.st2{fill:#F2F2F2;}
	.st3{fill:#CCE9FF;}
	.st4{fill:#FFFFFF;stroke:#CCE9FF;stroke-miterlimit:10;}
	.st5{fill:none;stroke:#EFEFEF;stroke-miterlimit:10;}
	.st6{fill:#EFEFEF;}
	.st7{fill:#2A94F4;}
	.st8{fill:#FFFFFF;stroke:#2A94F4;stroke-miterlimit:10;}
	.st9{fill:#A4DCFF;}
	.st10{fill:#e29ff5;}
	.st11{fill:#FFE3CA;}
	.st12{fill:#0B4870;}
	.st13{fill:#0E538C;}
	.st14{fill:#B6E7FF;}
	.st15{fill:#85DDFF;}
	.st16{fill:#41AAF7;}
</style>
<g xmlns="http://www.w3.org/2000/svg">
	<circle class="st0" cx="894.2" cy="301.4" r="125.5"/>
</g>
<g xmlns="http://www.w3.org/2000/svg">
	<path class="st1" d="M826.8,252.8c27.7,9.8,55.3,21.7,74.7,40.4c19.4,18.7,29.1,45.6,17.5,68.1c-15.6,30.1-64.8,47.6-65.1,80.2   c-0.2,23.3,26.6,41.2,53.6,49.6c27,8.5,56.9,11.5,81.4,23.9c37,18.7,54.4,54.9,61.5,89.7c7.4,36.1,4.4,77.2-27.3,103.3   C983.8,740.6,918.6,737,862.9,730c-74.4-9.3-148.5-20.1-222.6-31c-162.4-23.8-324.8-47.7-487.2-71.5c-17.4-2.6-35.5-5.4-49.7-13.9   c-28.1-17-30.5-52.1-14.1-77.2c16.3-25.1,46.5-42.1,76.5-56.8c30-14.7,61.7-28.7,84.2-50.5c22.5-21.8,33.7-54,16.6-78.8   c-14.4-21-45.4-32.2-58.9-53.6c-17.8-28.2,2.7-64.1,34.9-82.1S680.2,201.1,826.8,252.8z"/>
</g>
<path xmlns="http://www.w3.org/2000/svg" class="st2" d="M1024.4,956.5H56.6c-13.3,0-24.1-10.8-24.1-24.1v-45.8c0-13.3,10.8-24.1,24.1-24.1h967.8  c13.3,0,24.1,10.8,24.1,24.1v45.8C1048.5,945.7,1037.7,956.5,1024.4,956.5z"/>
<g xmlns="http://www.w3.org/2000/svg">
	<rect x="32" y="271.7" class="st3" width="337.6" height="198.1"/>
	<rect x="43.6" y="261.8" class="st4" width="337.6" height="198.1"/>
	<rect x="43.6" y="261.8" class="st4" width="337.6" height="16.9"/>
	<circle class="st3" cx="53.5" cy="270.9" r="4.1"/>
	<circle class="st3" cx="65.8" cy="270.9" r="4.1"/>
	<circle class="st3" cx="78.2" cy="270.9" r="4.1"/>
	<rect x="52.6" y="290.7" class="st3" width="317" height="46.2"/>
	<path class="st5" d="M296.2,390.6h-170c-8.2,0-14.9-6.7-14.9-14.9v0c0-8.2,6.7-14.9,14.9-14.9h170c8.2,0,14.9,6.7,14.9,14.9v0   C311,383.9,304.4,390.6,296.2,390.6z"/>
	<rect x="110.8" y="404.2" class="st6" width="200.6" height="5"/>
	<rect x="111.2" y="415.3" class="st6" width="200.6" height="5"/>
	<rect x="111.2" y="426.9" class="st6" width="200.6" height="5"/>
</g>
<g xmlns="http://www.w3.org/2000/svg">
	<rect x="698.8" y="487.1" class="st3" width="337.6" height="198.1"/>
	<rect x="710.4" y="477.2" class="st4" width="337.6" height="198.1"/>
	<rect x="710.4" y="477.2" class="st4" width="337.6" height="16.9"/>
	<circle class="st3" cx="720.3" cy="486.3" r="4.1"/>
	<circle class="st3" cx="732.7" cy="486.3" r="4.1"/>
	<circle class="st3" cx="745.1" cy="486.3" r="4.1"/>
	<rect x="716.2" y="502.8" class="st3" width="60.3" height="161.8"/>
	<rect x="786.3" y="502.8" class="st3" width="225.4" height="19"/>
	<rect x="786.3" y="534.1" class="st6" width="225.4" height="6.6"/>
	<rect x="786.3" y="546" class="st6" width="225.4" height="6.6"/>
	<rect x="786.3" y="557.8" class="st6" width="225.4" height="6.6"/>
	<rect x="786.3" y="569.6" class="st6" width="118.9" height="6.6"/>
	<path class="st5" d="M1005.6,664.6H792.4c-3.4,0-6.1-2.7-6.1-6.1v-66.3c0-3.4,2.7-6.1,6.1-6.1h213.2c3.4,0,6.1,2.7,6.1,6.1v66.3   C1011.7,661.8,1009,664.6,1005.6,664.6z"/>
</g>
<g xmlns="http://www.w3.org/2000/svg">
	<rect x="305" y="328.3" class="st7" width="454.4" height="266.7"/>
	<rect x="320.6" y="315" class="st8" width="454.4" height="266.7"/>
	<rect x="320.6" y="315" class="st8" width="454.4" height="22.8"/>
	<circle class="st7" cx="333.9" cy="327.2" r="5.6"/>
	<circle class="st7" cx="350.6" cy="327.2" r="5.6"/>
	<circle class="st7" cx="367.2" cy="327.2" r="5.6"/>
	<g>
		<circle class="st7" cx="392" cy="446.5" r="46.5"/>
		<rect x="345.5" y="509" class="st2" width="93" height="6.9"/>
		<rect x="345.5" y="521.7" class="st2" width="93" height="6.9"/>
		<rect x="345.5" y="534.4" class="st2" width="93" height="6.9"/>
		<rect x="345.5" y="547.1" class="st2" width="54" height="6.9"/>
	</g>
	<g>
		<circle class="st7" cx="704" cy="446.5" r="46.5"/>
		<rect x="657.5" y="509" class="st2" width="93" height="6.9"/>
		<rect x="657.5" y="521.7" class="st2" width="93" height="6.9"/>
		<rect x="657.5" y="534.4" class="st2" width="93" height="6.9"/>
		<rect x="657.5" y="547.1" class="st2" width="54" height="6.9"/>
	</g>
	<g>
		<circle class="st7" cx="548" cy="446.5" r="46.5"/>
		<rect x="501.5" y="509" class="st2" width="93" height="6.9"/>
		<rect x="501.5" y="521.7" class="st2" width="93" height="6.9"/>
		<rect x="501.5" y="534.4" class="st2" width="93" height="6.9"/>
		<rect x="501.5" y="547.1" class="st2" width="54" height="6.9"/>
	</g>
	<rect x="345.5" y="349" class="st2" width="405" height="33"/>
</g>
<g xmlns="http://www.w3.org/2000/svg">
	<polygon class="st3" points="763.8,313.8 763.8,426.9 732.7,390.6 698.8,426.9 698.8,313.8  "/>
	<polygon class="st9" points="763.8,313.8 763.8,426.9 732.7,390.6 732.7,313.8  "/>
	<polygon class="st10" points="723.4,312 732.2,293.6 741.5,311.8 761.7,314.5 747.3,328.9 751,349 732.8,339.7 714.9,349.4    718.1,329.3 703.3,315.2  "/>
	<g>
		<path class="st11" d="M726.6,351.3l-4.3-10.6l7.4-12.4c0,0,13.6,12.1,13,14.8c-0.6,2.8-12.4,11.7-12.4,11.7L726.6,351.3z"/>
		<path class="st11" d="M548.3,611.4c-3.6,5.2-2.7,17.7-2.7,17.7s10.1,6.8,11.1,4.9c0.5-2.8,0.4-9.7,0.4-9.7s2.5,6.1,3.5,5.7    c0-4-4.8-18.6-4.8-18.6H548.3z"/>
		<path class="st12" d="M620.2,882.7c5.8,19.4,6.1,31.7,21.2,33.6c15,1.9,48.6,0,48.6,0s-7.1-21.3-20.7-23.3    C655.8,891.1,620.2,882.7,620.2,882.7z"/>
		<path class="st12" d="M507.2,882.7c5.8,19.4,6.1,31.7,21.2,33.6c15,1.9,48.6,0,48.6,0s-7.1-21.3-20.7-23.3    S507.2,882.7,507.2,882.7z"/>
		<path class="st11" d="M654.3,408.7c0,17.8-2.6,32.2-17.2,32.2c-14.6,0-35.6-14.4-35.6-32.2s11.8-32.2,26.4-32.2    S654.3,390.9,654.3,408.7z"/>
		<polygon class="st11" points="641.1,439.5 642.7,451.8 623.5,451.8 625.8,437.4   "/>
		<path class="st13" d="M652,407.1c0,18.5-10.2,35-27.7,35c-17.5,0-35.6-22.1-35.6-40.7c0-18.5,14.2-27.9,31.6-27.9    C637.9,373.5,652,388.5,652,407.1z"/>
		<path class="st13" d="M641.1,382c8.6,4.9,16.7,10.6,16.7,21c-1.1,5.7-14.9,2.3-14.9,2.3L641.1,382z"/>
		<ellipse class="st11" cx="648.7" cy="416" rx="4.9" ry="6.1"/>
		<circle class="st13" cx="604.9" cy="377.3" r="16.1"/>
		<path class="st10" d="M624.1,447.8c-26.4,3.7-45.9,6.8-63.9,77.3c-15,58.8-13.4,87.4-13.4,87.4l12.8,1.4c0,0,10.3-89.5,40.4-118.3    l11.1,40.8H652l6.4-42.6l3.5-23.4c0,0,66.5-25.8,74.1-117c-12.8-4-12.8-4-12.8-4s-8.8,79.8-81.1,98.4H624.1z"/>
		<path class="st13" d="M611.2,536.3c-11.9,10.4-117.1,354.3-117.1,354.3s64.9,14.4,86,13.4l45.8-297.2l-24.5,297.2l97.5-7.8    c0,0-17.2-325.7-46.9-359.9C636.7,533.8,611.2,536.3,611.2,536.3z"/>
	</g>
</g>
<g xmlns="http://www.w3.org/2000/svg">
	<path class="st14" d="M140.2,899.9c25,0,35.6-20,39.8-41.2c4.7-23.9,1.3-49.4,1.3-49.4h-82c0,0-0.1,1-0.3,2.7   C97.4,827.1,92.4,899.9,140.2,899.9z"/>
	<path class="st15" d="M99.2,809.3c0,1.8,18.4,3.2,41,3.2c22.6,0,41-1.5,41-3.2c0-1.8-18.4-3.2-41-3.2   C117.6,806.1,99.2,807.6,99.2,809.3z"/>
	<path class="st7" d="M29.2,582c0,0,43.3,65.8,69.2,106s32.7,48.5,35.8,61.5c3.1,13,5.9,60.9,5.9,60.9h1.9c0,0-0.7-40.6-3-54.3   c-2.3-13.2,0.2-18,2-31.9c1.9-13.9,4.3-36.1-9.7-51.6c-14.1-15.4-10.3-30.6-15.3-40.8c-4.9-10.2-43.3-22.6-48.2-33.1   C62.8,588.1,41.2,581.7,29.2,582z"/>
	<path class="st16" d="M29.2,582c0,0,13.6,15.4,22.9,20.7c9.3,5.3,13.6,0.6,20.7,13.3c7.1,12.7,7.4,18.2,13.9,24.7   c6.5,6.5,14.2,6.8,14.8,21c0.6,14.2-3.1,26.3-3.1,26.3S31.9,585.4,29.2,582z"/>
	<path class="st7" d="M136.6,810.3h-1.9c0,0-0.6-13.2-5.8-19.5c-3.4-4.1-17.7-8.8-31.8-14.4c-7.8-3.1-15.5-6.5-21.4-10.2   C59.2,755.7,43.5,722,42.2,716c-0.5-2.1-0.7-3.4-0.7-4.2v0c0-1.6,0.8-1.9,2.2-3.5c0.7-0.8,2.7-0.5,5.1,0.2   c7.1,2.2,13.1,7,16.8,13.4c3.4,5.9,8.9,13.4,15.6,15.2c11.6,3.1,10.6,5,14.9,16.8c4.3,11.8,15.1,13.7,28.6,27.7   C138.4,795.6,136.6,810.3,136.6,810.3z"/>
	<path class="st16" d="M97,776.3c-7.8-3.1-15.5-6.5-21.4-10.2C59.2,755.7,43.5,722,42.2,716c-0.5-2.1-0.7-3.4-0.7-4.2   c0,0.4,0.8,5.7,9.4,9.3c8.9,3.7,10.6,3.7,11.8,9.3c1.2,5.6,2.1,11.6,6.8,12.8c4.6,1.2,7.5-4.1,11.2,4.4c3.7,8.5,5.4,11.4,8.8,12.6   c3.4,1.2,5.9-0.6,6.7,6C96.7,770.2,96.9,774,97,776.3z"/>
	<path class="st7" d="M150.9,810.3h2.3c0,0,4.5-81.5,10.7-89c4-4.9,17.1-13.6,33.9-20.3c9.2-3.7,18.4-7.6,25.3-12   c19.5-12.4,38.1-52.3,39.7-59.4c0.6-2.5,0.8-4,0.8-5v0c0-1.9-1-2.2-2.6-4.1c-0.8-0.9-3.2-0.6-6.1,0.3c-8.4,2.6-15.5,8.3-19.9,15.9   c-4.1,7-10.6,15.8-18.5,18c-13.8,3.7-12.6,6-17.7,19.9c-5.1,14-17.9,16.3-33.9,32.8C148.8,723.8,150.9,810.3,150.9,810.3z"/>
	<path class="st16" d="M197.7,701c9.2-3.7,18.4-7.6,25.3-12c19.5-12.4,38.1-52.3,39.7-59.4c0.6-2.5,0.8-4,0.8-5   c-0.1,0.5-1,6.8-11.1,11c-10.5,4.3-12.6,4.3-14,11c-1.4,6.6-2.5,13.8-8,15.1c-5.5,1.4-8.9-4.8-13.3,5.3   c-4.4,10.1-6.4,13.5-10.4,14.9c-4,1.4-7-0.7-7.9,7.1C198.2,693.7,197.9,698.2,197.7,701z"/>
	<g>
		<path class="st3" d="M140.2,899.9c25,0,35.6-20,39.8-41.2c-24.5-9.3-55.4-24.2-81.1-46.7C97.4,827.1,92.4,899.9,140.2,899.9z"/>
	</g>
</g>
<g xmlns="http://www.w3.org/2000/svg">
	<path class="st14" d="M969.7,899.9c16,0,22.7-12.8,25.4-26.3c3-15.3,0.8-31.5,0.8-31.5h-52.3c0,0-0.1,0.6-0.2,1.7   C942.4,853.5,939.2,899.9,969.7,899.9z"/>
	<path class="st15" d="M943.6,842.1c0,1.1,11.7,2.1,26.2,2.1c14.5,0,26.2-0.9,26.2-2.1c0-1.1-11.7-2.1-26.2-2.1   C955.3,840.1,943.6,841,943.6,842.1z"/>
	<path class="st7" d="M894.2,697.1c0,0,27.6,42,44.2,67.6c16.6,25.6,20.9,30.9,22.9,39.2c2,8.3,3.7,38.8,3.7,38.8h1.2   c0,0-0.4-25.9-1.9-34.7c-1.4-8.4,0.1-11.5,1.3-20.3c1.2-8.9,2.8-23.1-6.2-32.9c-9-9.9-6.6-19.5-9.8-26   c-3.2-6.5-27.6-14.4-30.7-21.1C915.7,701,901.9,696.9,894.2,697.1z"/>
	<path class="st16" d="M894.2,697.1c0,0,8.7,9.9,14.6,13.2c5.9,3.4,8.7,0.4,13.2,8.5c4.5,8.1,4.7,11.6,8.9,15.8   c4.2,4.1,9.1,4.3,9.5,13.4c0.4,9.1-2,16.8-2,16.8S896,699.2,894.2,697.1z"/>
	<path class="st7" d="M971.8,842.7h1.5c0,0,2.9-52,6.8-56.8c2.5-3.1,10.9-8.7,21.6-12.9c5.9-2.3,11.7-4.9,16.2-7.7   c12.4-7.9,24.3-33.3,25.3-37.9c0.4-1.6,0.5-2.5,0.5-3.2v0c0-1.2-0.6-1.4-1.7-2.6c-0.5-0.6-2-0.4-3.9,0.2   c-5.4,1.6-9.9,5.3-12.7,10.2c-2.6,4.5-6.7,10.1-11.8,11.5c-8.8,2.3-8,3.8-11.3,12.7c-3.2,8.9-11.4,10.4-21.6,20.9   C970.5,787.5,971.8,842.7,971.8,842.7z"/>
	<path class="st16" d="M1001.7,773c5.9-2.3,11.7-4.9,16.2-7.7c12.4-7.9,24.3-33.3,25.3-37.9c0.4-1.6,0.5-2.5,0.5-3.2   c0,0.3-0.6,4.3-7.1,7c-6.7,2.8-8,2.8-8.9,7c-0.9,4.2-1.6,8.8-5.1,9.7c-3.5,0.9-5.7-3.1-8.5,3.4c-2.8,6.4-4.1,8.6-6.7,9.5   c-2.6,0.9-4.5-0.4-5.1,4.5C1002,768.3,1001.8,771.2,1001.7,773z"/>
	<g>
		<path class="st3" d="M969.7,899.9c16,0,22.7-12.8,25.4-26.3c-15.7-5.9-35.4-15.5-51.7-29.8C942.4,853.5,939.2,899.9,969.7,899.9z"/>
	</g>
</g>
</svg>