<svg xmlns="http://www.w3.org/2000/svg" viewBox="0 0 290.73137 288.04508">
  <defs>
    <style>
      .cls-1, .cls-25 {
        fill: #fff;
      }

      .cls-2 {
        fill: #abbcd3;
      }

      .cls-10, .cls-11, .cls-12, .cls-16, .cls-19, .cls-20, .cls-21, .cls-22, .cls-23, .cls-24, .cls-26, .cls-27, .cls-28, .cls-29, .cls-3, .cls-33, .cls-34, .cls-35, .cls-36, .cls-37, .cls-4, .cls-9 {
        fill: none;
        stroke-linecap: round;
      }

      .cls-16, .cls-26, .cls-3, .cls-4 {
        stroke: #000201;
      }

      .cls-10, .cls-16, .cls-20, .cls-21, .cls-22, .cls-26, .cls-27, .cls-28, .cls-3, .cls-34, .cls-35, .cls-36, .cls-4, .cls-9 {
        stroke-linejoin: round;
      }

      .cls-3 {
        stroke-width: 1.12079px;
      }

      .cls-10, .cls-20, .cls-21, .cls-22, .cls-28, .cls-34, .cls-35, .cls-36, .cls-4 {
        stroke-width: 2.42021px;
      }

      .cls-5 {
        fill: #eaedef;
      }

      .cls-6 {
        fill: #ccd7dd;
      }

      .cls-7 {
        fill: #193649;
      }

      .cls-8 {
        fill: #325f77;
      }

      .cls-9 {
        stroke: #325f77;
      }

      .cls-11, .cls-19, .cls-23, .cls-27, .cls-33, .cls-9 {
        stroke-width: 2.54344px;
      }

      .cls-10, .cls-11, .cls-12 {
        stroke: #febc2e;
      }

      .cls-11, .cls-12, .cls-19, .cls-23, .cls-24, .cls-29, .cls-33, .cls-37 {
        stroke-miterlimit: 10;
      }

      .cls-12, .cls-24, .cls-29, .cls-37 {
        stroke-width: 1.30378px;
      }

      .cls-13 {
        fill: #ff5f57;
      }

      .cls-14 {
        fill: #febc2e;
      }

      .cls-15 {
        fill: #29c940;
      }

      .cls-16 {
        stroke-width: 1.5047px;
      }

      .cls-17 {
        fill: #383856;
      }

      .cls-18 {
        fill: #4a4a68;
      }

      .cls-19 {
        stroke: #4a4a68;
      }

      .cls-20 {
        stroke: #3bc197;
      }

      .cls-21 {
        stroke: #f76b9a;
      }

      .cls-22 {
        stroke: #43ffff;
      }

      .cls-23 {
        stroke: #3c3c5b;
      }

      .cls-24 {
        stroke: #6f6f8e;
      }

      .cls-25 {
        opacity: 0.45;
      }

      .cls-26 {
        stroke-width: 1.80991px;
      }

      .cls-27 {
        stroke: #ccd7dd;
      }

      .cls-28, .cls-29 {
        stroke: #9ccfce;
      }

      .cls-30 {
        fill: #4c5389;
      }

      .cls-31 {
        fill: #2e3a6d;
      }

      .cls-32 {
        fill: #3b447a;
      }

      .cls-33 {
        stroke: #6773ba;
      }

      .cls-34 {
        stroke: #61fc54;
      }

      .cls-35 {
        stroke: #f70d67;
      }

      .cls-36 {
        stroke: #859cff;
      }

      .cls-37 {
        stroke: #60fc54;
      }

      .cls-38 {
        font-size: 15.73997px;
        font-family: Jost-Bold, Jost;
        font-weight: 700;
      }
    </style>
  </defs>
  <g id="Layer_2" data-name="Layer 2">
    <g id="Layer_1-2" data-name="Layer 1">
      <g>
        <rect class="cls-1" x="45.11986" y="148.58911" width="50.81047" height="66.08347"/>
        <rect class="cls-2" x="45.11986" y="187.02055" width="50.81047" height="27.65203"/>
        <g>
          <g>
            <line class="cls-3" x1="51.23566" y1="154.69547" x2="76.5843" y2="154.69547"/>
            <line class="cls-3" x1="51.23566" y1="157.91964" x2="67.46768" y2="157.91964"/>
            <g>
              <line class="cls-3" x1="51.23566" y1="161.31058" x2="61.01935" y2="161.31058"/>
              <line class="cls-3" x1="63.90998" y1="161.31058" x2="66.46708" y2="161.31058"/>
              <line class="cls-3" x1="70.06186" y1="161.31058" x2="73.54543" y2="161.31058"/>
            </g>
          </g>
          <line class="cls-3" x1="51.23566" y1="164.45136" x2="63.90998" y2="164.45136"/>
          <g>
            <g>
              <line class="cls-3" x1="51.23566" y1="169.32931" x2="76.5843" y2="169.32931"/>
              <line class="cls-3" x1="51.23566" y1="172.55348" x2="67.46768" y2="172.55348"/>
              <g>
                <line class="cls-3" x1="51.23566" y1="175.94441" x2="61.01935" y2="175.94441"/>
                <line class="cls-3" x1="63.90998" y1="175.94441" x2="66.46708" y2="175.94441"/>
                <line class="cls-3" x1="70.06186" y1="175.94441" x2="73.54543" y2="175.94441"/>
              </g>
            </g>
            <line class="cls-3" x1="51.23566" y1="179.0852" x2="76.5843" y2="179.0852"/>
          </g>
          <g>
            <line class="cls-3" x1="51.23566" y1="183.79638" x2="76.5843" y2="183.79638"/>
            <line class="cls-3" x1="51.23566" y1="187.02055" x2="67.46768" y2="187.02055"/>
          </g>
        </g>
        <rect class="cls-4" x="45.11986" y="148.58911" width="50.81047" height="66.08347"/>
        <rect class="cls-2" x="161.86657" y="67.95312" width="124.74935" height="79.96859" rx="8.98859"/>
        <rect class="cls-2" x="18.09985" y="46.69159" width="124.74935" height="79.96859" rx="8.98859"/>
        <rect class="cls-2" x="6.84287" y="208.07649" width="124.74935" height="79.96859" rx="8.98859"/>
        <rect class="cls-5" x="4.0068" y="192.85329" width="121.36672" height="89.16985" rx="5.08688"/>
        <rect class="cls-6" x="4.72495" y="205.06177" width="119.72156" height="3.02269"/>
        <rect class="cls-6" x="4.82938" y="275.96963" width="119.72156" height="5.12308"/>
        <rect class="cls-7" x="157.49708" y="52.29463" width="121.36672" height="89.16985" rx="5.08688"/>
        <polygon class="cls-8" points="218.284 52.268 200.886 141.492 193.763 141.492 211.161 52.268 218.284 52.268"/>
        <g>
          <polygon class="cls-8" points="251.369 52.208 234.073 141.432 217.491 141.432 234.887 52.208 251.369 52.208"/>
          <polygon class="cls-8" points="263.782 52.208 246.384 141.432 239.261 141.432 256.659 52.208 263.782 52.208"/>
        </g>
        <line class="cls-9" x1="167.19206" y1="78.14789" x2="167.19206" y2="125.78493"/>
        <g>
          <line class="cls-10" x1="173.2963" y1="75.99346" x2="214.23064" y2="75.99346"/>
          <line class="cls-10" x1="173.2963" y1="81.20002" x2="199.50864" y2="81.20002"/>
          <g>
            <line class="cls-10" x1="173.2963" y1="86.67588" x2="189.09552" y2="86.67588"/>
            <line class="cls-10" x1="193.76347" y1="86.67588" x2="197.89281" y2="86.67588"/>
            <line class="cls-10" x1="203.69785" y1="86.67588" x2="209.32331" y2="86.67588"/>
          </g>
        </g>
        <g>
          <line class="cls-10" x1="173.2963" y1="96.8197" x2="214.23064" y2="96.8197"/>
          <line class="cls-10" x1="173.2963" y1="102.02626" x2="199.50864" y2="102.02626"/>
          <g>
            <line class="cls-10" x1="173.2963" y1="107.50212" x2="189.09552" y2="107.50212"/>
            <line class="cls-10" x1="193.76347" y1="107.50212" x2="197.89281" y2="107.50212"/>
            <line class="cls-10" x1="203.69785" y1="107.50212" x2="209.32331" y2="107.50212"/>
          </g>
        </g>
        <line class="cls-9" x1="173.2963" y1="91.74779" x2="193.76347" y2="91.74779"/>
        <line class="cls-11" x1="173.2963" y1="112.57403" x2="214.23064" y2="112.57403"/>
        <g>
          <line class="cls-10" x1="173.2963" y1="117.64594" x2="214.23064" y2="117.64594"/>
          <line class="cls-10" x1="173.2963" y1="122.8525" x2="199.50864" y2="122.8525"/>
          <g>
            <line class="cls-10" x1="173.2963" y1="128.32837" x2="189.09552" y2="128.32837"/>
            <line class="cls-10" x1="193.76347" y1="128.32837" x2="197.89281" y2="128.32837"/>
            <line class="cls-10" x1="203.69785" y1="128.32837" x2="209.32331" y2="128.32837"/>
          </g>
        </g>
        <g>
          <line class="cls-12" x1="247.92211" y1="122.8525" x2="268.90526" y2="122.8525"/>
          <line class="cls-12" x1="247.92211" y1="125.52141" x2="261.35869" y2="125.52141"/>
          <g>
            <line class="cls-12" x1="247.92211" y1="128.32837" x2="256.02087" y2="128.32837"/>
            <line class="cls-12" x1="258.41368" y1="128.32837" x2="260.53041" y2="128.32837"/>
            <line class="cls-12" x1="263.5061" y1="128.32837" x2="266.38974" y2="128.32837"/>
          </g>
        </g>
        <g>
          <line class="cls-12" x1="247.92211" y1="110.98626" x2="268.90526" y2="110.98626"/>
          <line class="cls-12" x1="247.92211" y1="113.65516" x2="261.35869" y2="113.65516"/>
          <g>
            <line class="cls-12" x1="247.92211" y1="116.46212" x2="256.02087" y2="116.46212"/>
            <line class="cls-12" x1="258.41368" y1="116.46212" x2="260.53041" y2="116.46212"/>
            <line class="cls-12" x1="263.5061" y1="116.46212" x2="266.38974" y2="116.46212"/>
          </g>
        </g>
        <g>
          <line class="cls-12" x1="247.92211" y1="87.25376" x2="268.90526" y2="87.25376"/>
          <line class="cls-12" x1="247.92211" y1="89.92267" x2="261.35869" y2="89.92267"/>
          <g>
            <line class="cls-12" x1="247.92211" y1="92.72963" x2="256.02087" y2="92.72963"/>
            <line class="cls-12" x1="258.41368" y1="92.72963" x2="260.53041" y2="92.72963"/>
            <line class="cls-12" x1="263.5061" y1="92.72963" x2="266.38974" y2="92.72963"/>
          </g>
        </g>
        <g>
          <line class="cls-12" x1="247.92211" y1="99.12001" x2="268.90526" y2="99.12001"/>
          <line class="cls-12" x1="247.92211" y1="101.78892" x2="261.35869" y2="101.78892"/>
          <g>
            <line class="cls-12" x1="247.92211" y1="104.59588" x2="256.02087" y2="104.59588"/>
            <line class="cls-12" x1="258.41368" y1="104.59588" x2="260.53041" y2="104.59588"/>
            <line class="cls-12" x1="263.5061" y1="104.59588" x2="266.38974" y2="104.59588"/>
          </g>
        </g>
        <g>
          <line class="cls-12" x1="247.92211" y1="75.38752" x2="268.90526" y2="75.38752"/>
          <line class="cls-12" x1="247.92211" y1="78.05643" x2="261.35869" y2="78.05643"/>
          <g>
            <line class="cls-12" x1="247.92211" y1="80.86338" x2="256.02087" y2="80.86338"/>
            <line class="cls-12" x1="258.41368" y1="80.86338" x2="260.53041" y2="80.86338"/>
            <line class="cls-12" x1="263.5061" y1="80.86338" x2="266.38974" y2="80.86338"/>
          </g>
        </g>
        <circle class="cls-13" cx="167.19206" cy="58.15949" r="2.03475"/>
        <circle class="cls-14" cx="173.53568" cy="58.15949" r="2.03475"/>
        <circle class="cls-15" cx="179.87931" cy="58.15949" r="2.03475"/>
        <rect class="cls-4" x="157.49708" y="52.29463" width="121.36672" height="89.16985" rx="5.08688"/>
        <line class="cls-16" x1="158.21523" y1="64.50311" x2="185.14572" y2="64.50311"/>
        <line class="cls-16" x1="192.0878" y1="64.50311" x2="277.93679" y2="64.50311"/>
        <rect class="cls-17" x="14.10608" y="31.01956" width="121.36672" height="89.16985" rx="5.08688"/>
        <polygon class="cls-18" points="75.583 30.992 58.185 120.217 51.062 120.217 68.46 30.992 75.583 30.992"/>
        <g>
          <polygon class="cls-18" points="108.668 30.933 91.371 120.157 74.789 120.157 92.186 30.933 108.668 30.933"/>
          <polygon class="cls-18" points="121.081 30.933 103.683 120.157 96.56 120.157 113.958 30.933 121.081 30.933"/>
        </g>
        <line class="cls-19" x1="23.80105" y1="56.87283" x2="23.80105" y2="104.50986"/>
        <g>
          <line class="cls-20" x1="29.9053" y1="54.71839" x2="70.83963" y2="54.71839"/>
          <line class="cls-21" x1="29.9053" y1="59.92495" x2="56.11764" y2="59.92495"/>
          <g>
            <line class="cls-22" x1="29.9053" y1="65.40081" x2="45.70451" y2="65.40081"/>
            <line class="cls-22" x1="50.37247" y1="65.40081" x2="54.50181" y2="65.40081"/>
            <line class="cls-22" x1="60.30684" y1="65.40081" x2="65.9323" y2="65.40081"/>
          </g>
        </g>
        <g>
          <line class="cls-20" x1="29.9053" y1="75.54463" x2="70.83963" y2="75.54463"/>
          <line class="cls-21" x1="29.9053" y1="80.75119" x2="56.11764" y2="80.75119"/>
          <g>
            <line class="cls-22" x1="29.9053" y1="86.22706" x2="45.70451" y2="86.22706"/>
            <line class="cls-22" x1="50.37247" y1="86.22706" x2="54.50181" y2="86.22706"/>
            <line class="cls-22" x1="60.30684" y1="86.22706" x2="65.9323" y2="86.22706"/>
          </g>
        </g>
        <line class="cls-23" x1="29.9053" y1="70.47272" x2="70.83963" y2="70.47272"/>
        <line class="cls-23" x1="29.9053" y1="91.29896" x2="70.83963" y2="91.29896"/>
        <g>
          <line class="cls-20" x1="29.9053" y1="96.37087" x2="70.83963" y2="96.37087"/>
          <line class="cls-21" x1="29.9053" y1="101.57743" x2="56.11764" y2="101.57743"/>
          <g>
            <line class="cls-22" x1="29.9053" y1="107.0533" x2="45.70451" y2="107.0533"/>
            <line class="cls-22" x1="50.37247" y1="107.0533" x2="54.50181" y2="107.0533"/>
            <line class="cls-22" x1="60.30684" y1="107.0533" x2="65.9323" y2="107.0533"/>
          </g>
        </g>
        <g>
          <line class="cls-24" x1="104.5311" y1="101.57743" x2="125.51425" y2="101.57743"/>
          <line class="cls-24" x1="104.5311" y1="104.24634" x2="117.96768" y2="104.24634"/>
          <g>
            <line class="cls-24" x1="104.5311" y1="107.0533" x2="112.62986" y2="107.0533"/>
            <line class="cls-24" x1="115.02268" y1="107.0533" x2="117.1394" y2="107.0533"/>
            <line class="cls-24" x1="120.11509" y1="107.0533" x2="122.99873" y2="107.0533"/>
          </g>
        </g>
        <g>
          <line class="cls-24" x1="104.5311" y1="89.71119" x2="125.51425" y2="89.71119"/>
          <line class="cls-24" x1="104.5311" y1="92.3801" x2="117.96768" y2="92.3801"/>
          <g>
            <line class="cls-24" x1="104.5311" y1="95.18705" x2="112.62986" y2="95.18705"/>
            <line class="cls-24" x1="115.02268" y1="95.18705" x2="117.1394" y2="95.18705"/>
            <line class="cls-24" x1="120.11509" y1="95.18705" x2="122.99873" y2="95.18705"/>
          </g>
        </g>
        <g>
          <line class="cls-24" x1="104.5311" y1="65.9787" x2="125.51425" y2="65.9787"/>
          <line class="cls-24" x1="104.5311" y1="68.64761" x2="117.96768" y2="68.64761"/>
          <g>
            <line class="cls-24" x1="104.5311" y1="71.45456" x2="112.62986" y2="71.45456"/>
            <line class="cls-24" x1="115.02268" y1="71.45456" x2="117.1394" y2="71.45456"/>
            <line class="cls-24" x1="120.11509" y1="71.45456" x2="122.99873" y2="71.45456"/>
          </g>
        </g>
        <g>
          <line class="cls-24" x1="104.5311" y1="77.84494" x2="125.51425" y2="77.84494"/>
          <line class="cls-24" x1="104.5311" y1="80.51385" x2="117.96768" y2="80.51385"/>
          <g>
            <line class="cls-24" x1="104.5311" y1="83.32081" x2="112.62986" y2="83.32081"/>
            <line class="cls-24" x1="115.02268" y1="83.32081" x2="117.1394" y2="83.32081"/>
            <line class="cls-24" x1="120.11509" y1="83.32081" x2="122.99873" y2="83.32081"/>
          </g>
        </g>
        <g>
          <line class="cls-24" x1="104.5311" y1="54.11245" x2="125.51425" y2="54.11245"/>
          <line class="cls-24" x1="104.5311" y1="56.78136" x2="117.96768" y2="56.78136"/>
          <g>
            <line class="cls-24" x1="104.5311" y1="59.58832" x2="112.62986" y2="59.58832"/>
            <line class="cls-24" x1="115.02268" y1="59.58832" x2="117.1394" y2="59.58832"/>
            <line class="cls-24" x1="120.11509" y1="59.58832" x2="122.99873" y2="59.58832"/>
          </g>
        </g>
        <circle class="cls-13" cx="23.80105" cy="36.88442" r="2.03475"/>
        <circle class="cls-14" cx="30.14468" cy="36.88442" r="2.03475"/>
        <circle class="cls-15" cx="36.4883" cy="36.88442" r="2.03475"/>
        <rect class="cls-4" x="14.10608" y="31.01956" width="121.36672" height="89.16985" rx="5.08688"/>
        <line class="cls-16" x1="14.82422" y1="43.22805" x2="41.75471" y2="43.22805"/>
        <line class="cls-16" x1="48.69679" y1="43.22805" x2="134.54579" y2="43.22805"/>
        <g>
          <rect class="cls-25" x="0.90496" y="92.88485" width="53.59685" height="39.37837" rx="2.24642"/>
          <line class="cls-26" x1="14.38345" y1="100.70779" x2="54.09243" y2="100.70779"/>
          <g>
            <circle class="cls-13" cx="5.18636" cy="96.8197" r="0.89857"/>
            <circle class="cls-14" cx="7.98777" cy="96.8197" r="0.89857"/>
            <circle class="cls-15" cx="10.78919" cy="96.8197" r="0.89857"/>
          </g>
          <g>
            <polygon class="cls-1" points="44.447 92.885 36.813 132.263 29.495 132.263 37.173 92.885 44.447 92.885"/>
            <polygon class="cls-1" points="49.925 92.885 42.247 132.263 39.103 132.263 46.782 92.885 49.925 92.885"/>
          </g>
          <line class="cls-26" x1="1.2221" y1="100.70779" x2="8.99205" y2="100.70779"/>
          <rect class="cls-26" x="0.90496" y="92.88485" width="53.59685" height="39.37837" rx="2.24642"/>
        </g>
        <g>
          <rect class="cls-25" x="206.02365" y="36.43556" width="53.59685" height="39.37837" rx="2.24642"/>
          <line class="cls-26" x1="219.50215" y1="44.2585" x2="259.21112" y2="44.2585"/>
          <g>
            <circle class="cls-13" cx="210.30505" cy="40.37041" r="0.89857"/>
            <circle class="cls-14" cx="213.10647" cy="40.37041" r="0.89857"/>
            <circle class="cls-15" cx="215.90788" cy="40.37041" r="0.89857"/>
          </g>
          <g>
            <polygon class="cls-1" points="249.566 36.436 241.932 75.814 234.614 75.814 242.292 36.436 249.566 36.436"/>
            <polygon class="cls-1" points="255.044 36.436 247.365 75.814 244.222 75.814 251.9 36.436 255.044 36.436"/>
          </g>
          <line class="cls-26" x1="206.34079" y1="44.2585" x2="214.11075" y2="44.2585"/>
          <rect class="cls-26" x="206.02365" y="36.43556" width="53.59685" height="39.37837" rx="2.24642"/>
        </g>
        <polygon class="cls-1" points="64.794 192.826 47.396 282.05 40.273 282.05 57.671 192.826 64.794 192.826"/>
        <g>
          <polygon class="cls-1" points="97.878 192.766 80.582 281.99 64 281.99 81.397 192.766 97.878 192.766"/>
          <polygon class="cls-1" points="110.291 192.766 92.893 281.99 85.771 281.99 103.169 192.766 110.291 192.766"/>
        </g>
        <line class="cls-27" x1="13.70178" y1="218.70655" x2="13.70178" y2="266.34359"/>
        <g>
          <g>
            <line class="cls-28" x1="19.80602" y1="216.55211" x2="60.74036" y2="216.55211"/>
            <line class="cls-28" x1="19.80602" y1="221.75867" x2="46.01836" y2="221.75867"/>
            <g>
              <line class="cls-28" x1="19.80602" y1="227.23454" x2="35.60524" y2="227.23454"/>
              <line class="cls-28" x1="40.27319" y1="227.23454" x2="44.40253" y2="227.23454"/>
              <line class="cls-28" x1="50.20757" y1="227.23454" x2="55.83303" y2="227.23454"/>
            </g>
          </g>
          <g>
            <line class="cls-28" x1="19.80602" y1="237.37836" x2="60.74036" y2="237.37836"/>
            <line class="cls-28" x1="19.80602" y1="242.58492" x2="46.01836" y2="242.58492"/>
            <g>
              <line class="cls-28" x1="19.80602" y1="248.06078" x2="35.60524" y2="248.06078"/>
              <line class="cls-28" x1="40.27319" y1="248.06078" x2="44.40253" y2="248.06078"/>
              <line class="cls-28" x1="50.20757" y1="248.06078" x2="55.83303" y2="248.06078"/>
            </g>
          </g>
          <line class="cls-27" x1="19.80602" y1="232.30645" x2="40.27319" y2="232.30645"/>
          <line class="cls-11" x1="19.80602" y1="253.13269" x2="60.74036" y2="253.13269"/>
          <g>
            <line class="cls-28" x1="19.80602" y1="258.2046" x2="60.74036" y2="258.2046"/>
            <line class="cls-28" x1="19.80602" y1="263.41116" x2="46.01836" y2="263.41116"/>
            <g>
              <line class="cls-28" x1="19.80602" y1="268.88703" x2="35.60524" y2="268.88703"/>
              <line class="cls-28" x1="40.27319" y1="268.88703" x2="44.40253" y2="268.88703"/>
              <line class="cls-28" x1="50.20757" y1="268.88703" x2="55.83303" y2="268.88703"/>
            </g>
          </g>
        </g>
        <g>
          <line class="cls-29" x1="94.43183" y1="263.41116" x2="115.41498" y2="263.41116"/>
          <line class="cls-29" x1="94.43183" y1="266.08007" x2="107.8684" y2="266.08007"/>
          <g>
            <line class="cls-29" x1="94.43183" y1="268.88703" x2="102.53059" y2="268.88703"/>
            <line class="cls-29" x1="104.9234" y1="268.88703" x2="107.04012" y2="268.88703"/>
            <line class="cls-29" x1="110.01581" y1="268.88703" x2="112.89945" y2="268.88703"/>
          </g>
        </g>
        <g>
          <line class="cls-29" x1="94.43183" y1="251.54491" x2="115.41498" y2="251.54491"/>
          <line class="cls-29" x1="94.43183" y1="254.21382" x2="107.8684" y2="254.21382"/>
          <g>
            <line class="cls-29" x1="94.43183" y1="257.02078" x2="102.53059" y2="257.02078"/>
            <line class="cls-29" x1="104.9234" y1="257.02078" x2="107.04012" y2="257.02078"/>
            <line class="cls-29" x1="110.01581" y1="257.02078" x2="112.89945" y2="257.02078"/>
          </g>
        </g>
        <g>
          <line class="cls-29" x1="94.43183" y1="227.81242" x2="115.41498" y2="227.81242"/>
          <line class="cls-29" x1="94.43183" y1="230.48133" x2="107.8684" y2="230.48133"/>
          <g>
            <line class="cls-29" x1="94.43183" y1="233.28829" x2="102.53059" y2="233.28829"/>
            <line class="cls-29" x1="104.9234" y1="233.28829" x2="107.04012" y2="233.28829"/>
            <line class="cls-29" x1="110.01581" y1="233.28829" x2="112.89945" y2="233.28829"/>
          </g>
        </g>
        <g>
          <line class="cls-29" x1="94.43183" y1="239.67867" x2="115.41498" y2="239.67867"/>
          <line class="cls-29" x1="94.43183" y1="242.34758" x2="107.8684" y2="242.34758"/>
          <g>
            <line class="cls-29" x1="94.43183" y1="245.15453" x2="102.53059" y2="245.15453"/>
            <line class="cls-29" x1="104.9234" y1="245.15453" x2="107.04012" y2="245.15453"/>
            <line class="cls-29" x1="110.01581" y1="245.15453" x2="112.89945" y2="245.15453"/>
          </g>
        </g>
        <g>
          <line class="cls-29" x1="94.43183" y1="215.94618" x2="115.41498" y2="215.94618"/>
          <line class="cls-29" x1="94.43183" y1="218.61509" x2="107.8684" y2="218.61509"/>
          <g>
            <line class="cls-29" x1="94.43183" y1="221.42204" x2="102.53059" y2="221.42204"/>
            <line class="cls-29" x1="104.9234" y1="221.42204" x2="107.04012" y2="221.42204"/>
            <line class="cls-29" x1="110.01581" y1="221.42204" x2="112.89945" y2="221.42204"/>
          </g>
        </g>
        <circle class="cls-13" cx="13.70178" cy="198.71815" r="2.03475"/>
        <circle class="cls-14" cx="20.0454" cy="198.71815" r="2.03475"/>
        <circle class="cls-15" cx="26.38903" cy="198.71815" r="2.03475"/>
        <path class="cls-4" d="M31.23,192.85329h89.05663a5.08688,5.08688,0,0,1,5.08688,5.08688v78.99609a5.08688,5.08688,0,0,1-5.08688,5.08688H9.09368a5.08688,5.08688,0,0,1-5.08688-5.08688V197.94017a5.08688,5.08688,0,0,1,5.08688-5.08688H23.33041"/>
        <line class="cls-16" x1="4.72495" y1="205.06177" x2="31.65543" y2="205.06177"/>
        <line class="cls-16" x1="38.59751" y1="205.06177" x2="124.44651" y2="205.06177"/>
        <rect class="cls-2" x="165.98201" y="183.70877" width="124.74935" height="79.96859" rx="8.98859"/>
        <rect class="cls-30" x="161.98824" y="168.03674" width="121.36672" height="89.16985" rx="5.08688"/>
        <path class="cls-31" d="M161.98824,215.94618H283.355a0,0,0,0,1,0,0v37.80015a3.46026,3.46026,0,0,1-3.46026,3.46026H165.4485a3.46026,3.46026,0,0,1-3.46026-3.46026V215.94618A0,0,0,0,1,161.98824,215.94618Z"/>
        <polygon class="cls-32" points="223.465 168.01 206.067 257.234 198.945 257.234 216.342 168.01 223.465 168.01"/>
        <g>
          <polygon class="cls-32" points="256.55 167.95 239.254 257.174 222.672 257.174 240.068 167.95 256.55 167.95"/>
          <polygon class="cls-32" points="268.963 167.95 251.565 257.174 244.442 257.174 261.84 167.95 268.963 167.95"/>
        </g>
        <line class="cls-33" x1="171.68322" y1="193.89001" x2="171.68322" y2="241.52705"/>
        <line class="cls-34" x1="177.78746" y1="191.73557" x2="218.7218" y2="191.73557"/>
        <line class="cls-35" x1="177.78746" y1="196.94213" x2="203.9998" y2="196.94213"/>
        <g>
          <line class="cls-36" x1="177.78746" y1="202.418" x2="193.58668" y2="202.418"/>
          <line class="cls-36" x1="198.25463" y1="202.418" x2="202.38397" y2="202.418"/>
          <line class="cls-36" x1="208.18901" y1="202.418" x2="213.81447" y2="202.418"/>
        </g>
        <line class="cls-34" x1="177.78746" y1="212.56181" x2="218.7218" y2="212.56181"/>
        <line class="cls-35" x1="177.78746" y1="217.76837" x2="203.9998" y2="217.76837"/>
        <g>
          <line class="cls-36" x1="177.78746" y1="223.24424" x2="193.58668" y2="223.24424"/>
          <line class="cls-36" x1="198.25463" y1="223.24424" x2="202.38397" y2="223.24424"/>
          <line class="cls-36" x1="208.18901" y1="223.24424" x2="213.81447" y2="223.24424"/>
        </g>
        <line class="cls-33" x1="177.78746" y1="207.4899" x2="218.7218" y2="207.4899"/>
        <line class="cls-33" x1="177.78746" y1="228.31615" x2="218.7218" y2="228.31615"/>
        <line class="cls-34" x1="177.78746" y1="233.38805" x2="218.7218" y2="233.38805"/>
        <line class="cls-35" x1="177.78746" y1="238.59462" x2="203.9998" y2="238.59462"/>
        <g>
          <line class="cls-36" x1="177.78746" y1="244.07048" x2="193.58668" y2="244.07048"/>
          <line class="cls-36" x1="198.25463" y1="244.07048" x2="202.38397" y2="244.07048"/>
          <line class="cls-36" x1="208.18901" y1="244.07048" x2="213.81447" y2="244.07048"/>
        </g>
        <g>
          <line class="cls-37" x1="252.41327" y1="238.59462" x2="273.39642" y2="238.59462"/>
          <line class="cls-37" x1="252.41327" y1="241.26352" x2="265.84984" y2="241.26352"/>
          <g>
            <line class="cls-37" x1="252.41327" y1="244.07048" x2="260.51203" y2="244.07048"/>
            <line class="cls-37" x1="262.90484" y1="244.07048" x2="265.02156" y2="244.07048"/>
            <line class="cls-37" x1="267.99725" y1="244.07048" x2="270.88089" y2="244.07048"/>
          </g>
        </g>
        <g>
          <line class="cls-37" x1="252.41327" y1="226.72837" x2="273.39642" y2="226.72837"/>
          <line class="cls-37" x1="252.41327" y1="229.39728" x2="265.84984" y2="229.39728"/>
          <g>
            <line class="cls-37" x1="252.41327" y1="232.20424" x2="260.51203" y2="232.20424"/>
            <line class="cls-37" x1="262.90484" y1="232.20424" x2="265.02156" y2="232.20424"/>
            <line class="cls-37" x1="267.99725" y1="232.20424" x2="270.88089" y2="232.20424"/>
          </g>
        </g>
        <g>
          <line class="cls-37" x1="252.41327" y1="202.99588" x2="273.39642" y2="202.99588"/>
          <line class="cls-37" x1="252.41327" y1="205.66479" x2="265.84984" y2="205.66479"/>
          <g>
            <line class="cls-37" x1="252.41327" y1="208.47174" x2="260.51203" y2="208.47174"/>
            <line class="cls-37" x1="262.90484" y1="208.47174" x2="265.02156" y2="208.47174"/>
            <line class="cls-37" x1="267.99725" y1="208.47174" x2="270.88089" y2="208.47174"/>
          </g>
        </g>
        <g>
          <line class="cls-37" x1="252.41327" y1="214.86212" x2="273.39642" y2="214.86212"/>
          <line class="cls-37" x1="252.41327" y1="217.53103" x2="265.84984" y2="217.53103"/>
          <g>
            <line class="cls-37" x1="252.41327" y1="220.33799" x2="260.51203" y2="220.33799"/>
            <line class="cls-37" x1="262.90484" y1="220.33799" x2="265.02156" y2="220.33799"/>
            <line class="cls-37" x1="267.99725" y1="220.33799" x2="270.88089" y2="220.33799"/>
          </g>
        </g>
        <g>
          <line class="cls-37" x1="252.41327" y1="191.12963" x2="273.39642" y2="191.12963"/>
          <line class="cls-37" x1="252.41327" y1="193.79854" x2="265.84984" y2="193.79854"/>
          <g>
            <line class="cls-37" x1="252.41327" y1="196.6055" x2="260.51203" y2="196.6055"/>
            <line class="cls-37" x1="262.90484" y1="196.6055" x2="265.02156" y2="196.6055"/>
            <line class="cls-37" x1="267.99725" y1="196.6055" x2="270.88089" y2="196.6055"/>
          </g>
        </g>
        <circle class="cls-13" cx="171.68322" cy="173.9016" r="2.03475"/>
        <circle class="cls-14" cx="178.02684" cy="173.9016" r="2.03475"/>
        <circle class="cls-15" cx="184.37047" cy="173.9016" r="2.03475"/>
        <rect class="cls-4" x="161.98824" y="168.03674" width="121.36672" height="89.16985" rx="5.08688"/>
        <line class="cls-16" x1="162.70639" y1="180.24523" x2="189.63687" y2="180.24523"/>
        <line class="cls-16" x1="196.57895" y1="180.24523" x2="282.42795" y2="180.24523"/>
        <g>
          <rect class="cls-25" x="148.78712" y="229.90203" width="53.59685" height="39.37837" rx="2.24642"/>
          <line class="cls-26" x1="162.26562" y1="237.72497" x2="201.97459" y2="237.72497"/>
          <g>
            <circle class="cls-13" cx="153.06852" cy="233.83688" r="0.89857"/>
            <circle class="cls-14" cx="155.86994" cy="233.83688" r="0.89857"/>
            <circle class="cls-15" cx="158.67135" cy="233.83688" r="0.89857"/>
          </g>
          <g>
            <polygon class="cls-1" points="192.329 229.902 184.695 269.28 177.377 269.28 185.055 229.902 192.329 229.902"/>
            <polygon class="cls-1" points="197.807 229.902 190.129 269.28 186.985 269.28 194.664 229.902 197.807 229.902"/>
          </g>
          <line class="cls-26" x1="149.10426" y1="237.72497" x2="156.87422" y2="237.72497"/>
          <rect class="cls-26" x="148.78712" y="229.90203" width="53.59685" height="39.37837" rx="2.24642"/>
        </g>
        <g>
          <circle class="cls-1" cx="140.32218" cy="22.7545" r="21.54439"/>
          <circle class="cls-4" cx="140.32218" cy="22.7545" r="21.54439"/>
          <text class="cls-38" transform="translate(125.46127 26.69084)">&lt;/&gt;</text>
        </g>
      </g>
    </g>
  </g>
</svg>
