<svg xmlns="http://www.w3.org/2000/svg" xmlns:xlink="http://www.w3.org/1999/xlink" version="1.1" id="Layer_1" x="0px" y="0px" viewBox="0 0 1080 1080" style="enable-background:new 0 0 1080 1080;" xml:space="preserve">
<style xmlns="http://www.w3.org/2000/svg" type="text/css">
	.st0{fill:none;stroke:#D3D3D3;stroke-miterlimit:10;stroke-dasharray:12.1212,12.1212;}
	.st1{fill:#1A87D8;}
	.st2{fill:#2A94F4;}
	.st3{fill:#B0E1FF;}
	.st4{fill:#e29ff5;}
	.st5{fill:#F7F7F7;}
	.st6{fill:#0B4870;}
	.st7{fill:#F2F2F2;}
	.st8{fill:#2390E2;}
	.st9{fill:#E9F7FF;}
	.st10{fill:none;stroke:#B0E1FF;stroke-width:2;stroke-miterlimit:10;}
	.st11{fill:#FFFFFF;}
	.st12{fill:#0A3B56;}
	.st13{fill:#A2DFF9;}
	.st14{fill:#E2A881;}
	.st15{fill:#EFB68F;}
</style>
<g xmlns="http://www.w3.org/2000/svg">
	<circle class="st0" cx="171.4" cy="472.3" r="138.9"/>
</g>
<g xmlns="http://www.w3.org/2000/svg">
	<g>
		<g>
			<path class="st1" d="M975.1,885.9c-8.6-40-35-75.9-70.8-95.9c19.1,36.1,42,70.2,68.2,101.6L975.1,885.9z"/>
		</g>
		<g>
			<path class="st2" d="M984.7,901c-34-47.6-51.1-107.1-47.5-165.5c22.1,53.9,38.7,110,49.7,167.3L984.7,901z"/>
		</g>
		<g>
			<path class="st1" d="M974.9,902.6c-1-29.3-2.1-58.8,2.5-87.7c4.6-28.9,15.2-57.6,34.9-79.3c3,60-11.5,120.7-41.3,172.8     L974.9,902.6z"/>
		</g>
		<g>
			<path class="st3" d="M976.3,905.2c-19.2-55.4-16-118.1,8.6-171.3c15.4,55.6,1.8,114.6-11.9,170.6L976.3,905.2z"/>
		</g>
		<g>
			<path class="st2" d="M978.9,884.7c5.3-48.6,37.7-93.3,82.2-113.4c-18.1,48.5-48.9,92.1-88.6,125.3L978.9,884.7z"/>
		</g>
	</g>
	<path class="st4" d="M1024.8,876.2l-5.5,94.3c0,4.5-3.7,8.3-8.3,8.3h-65.4c-4.5,0-8.3-3.7-8.3-8.3l-1.2-21.3l-4.3-73   c0-4.5,3.7-8.3,8.3-8.3h76.4c3,0,5.6,1.6,7.1,4v0C1024.3,873.2,1024.8,874.6,1024.8,876.2z"/>
</g>
<g xmlns="http://www.w3.org/2000/svg">
	<path class="st5" d="M181.9,417.5c-19.5,13.7-38.4,29.5-49.7,50.5c-11.3,21-13.5,48.3-0.2,68c17.9,26.3,59.3,35.3,65.8,66.5   c4.7,22.3-12.4,43.6-31.6,56s-41.6,20-58.1,35.8c-24.9,23.8-31.2,61.2-29.9,95.6c1.4,35.7,11.7,74.6,41.3,94.6   c36.7,24.9,86.3,11.2,127.9-4.3C303,859.5,358,837.4,413,815.3c120.6-48.4,241.1-96.8,361.7-145.3c12.9-5.2,26.3-10.7,35.6-21.2   c18.3-20.7,13.3-54.7-4.2-76.1c-17.5-21.4-44.1-33-70.2-42.4c-26-9.4-53.2-17.7-74.8-35c-21.6-17.3-36.5-46.4-28.2-72.8   c7-22.4,28.7-38,34.9-60.6c8.2-29.8-14.6-61-43-73.1S284.8,345,181.9,417.5z"/>
</g>
<rect xmlns="http://www.w3.org/2000/svg" x="469.2" y="883" class="st6" width="141.7" height="75.5"/>
<path xmlns="http://www.w3.org/2000/svg" class="st7" d="M1024.1,1045.4H55.9c-6.3,0-11.4-5.1-11.4-11.4v-56.8c0-6.3,5.1-11.4,11.4-11.4h968.2c6.3,0,11.4,5.1,11.4,11.4  v56.8C1035.5,1040.3,1030.4,1045.4,1024.1,1045.4z"/>
<path xmlns="http://www.w3.org/2000/svg" class="st8" d="M396.7,940.2h286.5c14.2,0,25.8,11.5,25.8,25.8l0,0H371l0,0C371,951.8,382.5,940.2,396.7,940.2z"/>
<path xmlns="http://www.w3.org/2000/svg" class="st8" d="M190.3,431h699.4c5.2,0,9.4,4.2,9.4,9.4v441.2c0,5.2-4.2,9.4-9.4,9.4H190.3c-5.2,0-9.4-4.2-9.4-9.4V440.4  C180.9,435.2,185.1,431,190.3,431z"/>
<path xmlns="http://www.w3.org/2000/svg" class="st9" d="M205.2,451.3h669.5c4.8,0,8.7,3.9,8.7,8.7v394.1c0,4.8-3.9,8.7-8.7,8.7H205.2c-4.8,0-8.7-3.9-8.7-8.7V460  C196.6,455.2,200.5,451.3,205.2,451.3z"/>
<path xmlns="http://www.w3.org/2000/svg" class="st3" d="M809.7,513V809c0,6.6-5.4,12-12,12H237.2c-6.6,0-12-5.4-12-12V513c0-6.6,5.4-12,12-12h560.5  C804.3,501,809.7,506.3,809.7,513z"/>
<path xmlns="http://www.w3.org/2000/svg" class="st10" d="M847,543.6v296.1c0,6.6-5.4,12-12,12H274.5c-6.6,0-12-5.4-12-12V543.6c0-6.6,5.4-12,12-12H835  C841.6,531.6,847,537,847,543.6z"/>
<path xmlns="http://www.w3.org/2000/svg" class="st4" d="M809.7,513v27H225.2v-27c0-6.6,5.4-12,12-12h560.5C804.3,501,809.7,506.3,809.7,513z"/>
<path xmlns="http://www.w3.org/2000/svg" class="st11" d="M772.7,661H262.2c-6.6,0-12-5.4-12-12v-53.3c0-6.6,5.4-12,12-12h510.5c6.6,0,12,5.4,12,12V649  C784.7,655.6,779.3,661,772.7,661z"/>
<g xmlns="http://www.w3.org/2000/svg">
	<path class="st3" d="M271,637.9v-30.4h5.8v11.2c0.8-0.9,1.9-1.7,3.2-2.4c1.3-0.7,2.8-1,4.5-1c2.4,0,4.2,0.6,5.4,1.8   c1.2,1.2,1.8,2.9,1.8,5.1v15.6h-5.8v-13.4c0-1.5-0.3-2.5-1-3.1c-0.7-0.6-1.7-0.9-3-0.9c-1.1,0-2,0.2-2.9,0.7s-1.6,1.1-2.1,1.8v14.8   H271z"/>
	<path class="st3" d="M294.9,621v-5h3.6v-6h5.8v6h4.5v5h-4.5v9.9c0,0.7,0.2,1.3,0.5,1.8c0.4,0.5,0.8,0.7,1.5,0.7   c0.4,0,0.8-0.1,1.2-0.2c0.4-0.1,0.7-0.3,0.8-0.5l1.2,4.4c-1.1,0.9-2.7,1.4-4.8,1.4c-2,0-3.6-0.5-4.6-1.5c-1.1-1-1.6-2.5-1.6-4.5   V621H294.9z"/>
	<path class="st3" d="M310.3,621v-5h3.6v-6h5.8v6h4.5v5h-4.5v9.9c0,0.7,0.2,1.3,0.5,1.8c0.4,0.5,0.8,0.7,1.5,0.7   c0.4,0,0.8-0.1,1.2-0.2c0.4-0.1,0.7-0.3,0.8-0.5l1.2,4.4c-1.1,0.9-2.7,1.4-4.8,1.4c-2,0-3.6-0.5-4.6-1.5c-1.1-1-1.6-2.5-1.6-4.5   V621H310.3z"/>
	<path class="st3" d="M328.1,646.3v-30.4h5.8v2.8c1.8-2.2,4-3.3,6.8-3.3c2.9,0,5.2,1,7,3.1c1.8,2,2.7,4.9,2.7,8.4   c0,3.6-0.9,6.4-2.7,8.5c-1.8,2.1-4.1,3.1-7,3.1c-2.7,0-5-1.1-6.8-3.4v11.2H328.1z M333.9,630.8c0.5,0.7,1.2,1.3,2.2,1.8   c0.9,0.5,1.9,0.7,2.8,0.7c1.7,0,3-0.6,4-1.8c1-1.2,1.6-2.7,1.6-4.6c0-1.9-0.5-3.4-1.6-4.6c-1-1.2-2.4-1.8-4-1.8   c-0.9,0-1.9,0.2-2.8,0.7c-0.9,0.5-1.7,1.1-2.2,1.8V630.8z"/>
	<path class="st3" d="M355,621.5c-0.7-0.7-1.1-1.5-1.1-2.4s0.4-1.7,1.1-2.4c0.7-0.7,1.6-1,2.6-1c1,0,1.8,0.3,2.6,1   c0.7,0.7,1.1,1.5,1.1,2.4s-0.4,1.7-1.1,2.4c-0.7,0.7-1.6,1-2.6,1C356.5,622.5,355.7,622.1,355,621.5z M355,637.4   c-0.7-0.7-1.1-1.5-1.1-2.4c0-0.9,0.4-1.7,1.1-2.4c0.7-0.7,1.6-1,2.6-1c1,0,1.8,0.3,2.6,1c0.7,0.7,1.1,1.5,1.1,2.4   c0,0.9-0.4,1.7-1.1,2.4c-0.7,0.7-1.6,1-2.6,1C356.5,638.4,355.7,638.1,355,637.4z"/>
	<path class="st3" d="M362.9,638.8l10.8-32.2h4.2l-10.8,32.2H362.9z"/>
	<path class="st3" d="M377.9,638.8l10.8-32.2h4.2l-10.8,32.2H377.9z"/>
</g>
<path xmlns="http://www.w3.org/2000/svg" class="st9" d="M317.5,707.5h399.9c4.4,0,7.9-3.6,7.9-7.9l0,0c0-4.4-3.6-7.9-7.9-7.9H317.5c-4.4,0-7.9,3.6-7.9,7.9l0,0  C309.6,703.9,313.1,707.5,317.5,707.5z"/>
<path xmlns="http://www.w3.org/2000/svg" class="st9" d="M417.8,749.9h199.3c3.1,0,5.6-2.5,5.6-5.6v-4.6c0-3.1-2.5-5.6-5.6-5.6H417.8c-3.1,0-5.6,2.5-5.6,5.6v4.6  C412.2,747.4,414.7,749.9,417.8,749.9z"/>
<g xmlns="http://www.w3.org/2000/svg">
	<g>
		<path class="st6" d="M858.9,268.4c3.3,4.3,11.5,5.2,16.9,6.1s10.9,1.2,15.9,3.3c7.1,2.9,12.6,9.3,14.4,16.8s-0.4,15.7-5.5,21.4    c-5.8,6.5-15.1,9.5-23.8,8.6s-16.9-5.1-23.5-10.8c-6.6-5.7-11.8-12.9-16.4-20.4c-1.7-2.8-3.4-5.7-4.1-8.8    c-0.7-3.2-0.4-6.8,1.7-9.3L858.9,268.4z"/>
	</g>
	<path class="st4" d="M739.7,559.7c0,0-13.3,22.1-20.9,27.4c-1.1,0.7-0.7,2.4,0.5,2.7c7.4,2,23.5-9,25-12c1.7-3.4,10.3-1.7,10.3-6.9   c0-5.2-3.4-15.5-3.4-15.5L739.7,559.7z"/>
	<path class="st4" d="M712.7,531.2c0,0-17.1,19.3-25.5,23.1c-1.2,0.5-1.2,2.2,0,2.7c6.9,3.3,24.7-4.5,26.8-7.2   c2.3-3.1,10.5,0.2,11.4-4.9c0.9-5.1-0.5-15.9-0.5-15.9L712.7,531.2z"/>
	<path class="st12" d="M841,396.7l-80.6,5.8l-48.3,131l12,0.9c0,0,50.3-68.6,47.3-96.5c24.7-6.7,118.1,14.5,106.7-38.3   C866.8,346.8,841,396.7,841,396.7z"/>
	<path class="st6" d="M839.1,403.7L769,425.2l-29.7,136.4l12-0.7c0,0,40.3-74.9,33.5-102.1c23.6-10.1,119-2,100.4-52.7   S839.1,403.7,839.1,403.7z"/>
	<path class="st4" d="M842.6,303.8c-8.2,0-12.5,18-19.1,36.6c-6.6,18.4-19.9,33.7-37.1,43.1l-9.9,5.4l8.1,7.3   c0,0,35.5-13.2,48.7-35.6C845.4,339.8,842.6,303.8,842.6,303.8z"/>
	<path class="st4" d="M841,304c11-1,28-8.4,35.7,2.2c7.7,10.6,16.7,80.6,5.1,95.7c-15.4,1.5-57.8,3-56.5,0c3.9-6.1,12.8-28.9,9-41   s-10.3-19.8,0-31.9C836.9,315.3,841,304,841,304z"/>
	<path class="st4" d="M867.3,302c-15.3-2.9-8.5,70.6-15.8,76.9c-7.3,6.2-48.5,22.8-57.1,22.8c5.2,5.2,12.1,8.6,12.1,8.6   s49.8-9.7,56.7-16.6c6.9-6.9,22.4-55.9,20.7-62.4C882.2,324.8,883.5,305.1,867.3,302z"/>
	<path class="st13" d="M828.7,424.8h-98c-1,0-1.8-0.8-1.8-1.8v-3.2c0-1,0.8-1.8,1.8-1.8h98c1,0,1.8,0.8,1.8,1.8v3.2   C830.5,424,829.7,424.8,828.7,424.8z"/>
	<path class="st9" d="M817.9,421.2h-85.1c-2.2,0-4-1.8-4-4l-10-59.5c0-2.2,1.8-4,4-4h85.1c2.2,0,4,1.8,4,4l10,59.5   C821.9,419.4,820.1,421.2,817.9,421.2z"/>
	<ellipse transform="matrix(0.9382 -0.3461 0.3461 0.9382 -88.483 288.4809)" class="st4" cx="763.5" cy="392" rx="8.5" ry="12"/>
	<polygon class="st14" points="860.3,302.9 847,313 851.7,302.9 851.7,287.2 860.3,287.2  "/>
	<g>
		<path class="st6" d="M839.2,264.7c-2.2-0.4-4.6,0.8-5.8,2.7c-1.2,1.9-1.4,4.4-0.7,6.5c0.7,2.1,2.3,3.9,4.2,5.2    c0.3,0.2,0.6,0.4,0.9,0.3c0.4-0.1,0.6-0.6,0.7-1c0.6-2.1,1.2-4.3,1.7-6.4c0.4-1.3,0.7-2.7,0.5-4.1c-0.2-1.4-1.1-2.7-2.4-3.1"/>
	</g>
	<path class="st15" d="M862,272c4.7,15.2-3.7,21.8-11,24c-7.2,2.2-13-8.8-15.2-16c-2.2-7.2,1.9-14.8,9.1-17.1   C852.1,260.8,859.8,264.8,862,272z"/>
	<g>
		<path class="st6" d="M834.5,270.5c4.1,5.3,15.9,4.4,21.3,6.9c5.4,2.5,4.9,5.3,10.5,6.7c1.2,0.3,2.6,0.5,3.3-0.6    c0.5-0.9,0.3-2.2,0-3.3c-2-7.9-6.5-15.8-12.8-19c-3.7-1.9-7.6-2-11.5-2.1c-2.6-0.1-5.3-0.1-7.5,1.3S833.6,267.4,834.5,270.5"/>
	</g>
</g>
</svg>