<svg id="Capa_1" enable-background="new 0 0 497 497" height="512" viewBox="0 0 497 497" width="512" xmlns="http://www.w3.org/2000/svg"><g><path d="m90.489 472c0 8.284 6.716 15 15 15h279.021c8.284 0 15-6.716 15-15v-457c0-8.284-6.716-15-15-15h-289.021c-8.284 0-15 6.716-15 15v381.195z" fill="#edf5fa"/><path d="m401.511 0h-30c8.284 0 15 6.716 15 15v467c0 8.284-6.716 13-15 13h20c8.284 0 15-4.716 15-13l10-85.805v-381.195c0-8.284-6.716-15-15-15z" fill="#d0e7f2"/><path d="m211.859 329.651h-74.642c-5.523 0-10-4.477-10-10v-84.642c0-5.523 4.477-10 10-10h74.642c5.523 0 10 4.477 10 10v84.642c0 5.523-4.477 10-10 10z" fill="#6cf5c2"/><path d="m221.859 225.01h-22c5.523 0 10 4.477 10 10v84.642c0 5.523-4.477 10-10 10h22c5.523 0 10-4.477 10-10v-84.642c0-5.524-4.477-10-10-10z" fill="#05e39c"/><path d="m349.783 329.651h-74.642c-5.523 0-10-4.477-10-10v-84.642c0-5.523 4.477-10 10-10h74.642c5.523 0 10 4.477 10 10v84.642c0 5.523-4.478 10-10 10z" fill="#978ecb"/><path d="m359.783 225.01h-22c5.523 0 10 4.477 10 10v84.642c0 5.523-4.477 10-10 10h22c5.523 0 10-4.477 10-10v-84.642c0-5.524-4.478-10-10-10z" fill="#6e61b6"/><path d="m349.783 191.426h-74.642c-5.523 0-10-4.477-10-10v-84.642c0-5.523 4.477-10 10-10h74.642c5.523 0 10 4.477 10 10v84.642c0 5.523-4.478 10-10 10z" fill="#fee97d"/><path d="m359.783 86.784h-22c5.523 0 10 4.477 10 10v84.642c0 5.523-4.477 10-10 10h22c5.523 0 10-4.477 10-10v-84.642c0-5.523-4.478-10-10-10z" fill="#fedf30"/><path d="m80.489 396.195v85.805c0 8.284 6.716 15 15 15h287.021c8.284 0 15-6.716 15-15v-85.805z" fill="#978ecb"/><g><path d="m300.579 37.832h-104.159c-4.142 0-7.5-3.358-7.5-7.5s3.358-7.5 7.5-7.5h104.159c4.143 0 7.5 3.358 7.5 7.5s-3.357 7.5-7.5 7.5z" fill="#5b596d"/></g><path d="m386.511 396.195v85.805c0 8.284-6.716 15-15 15h30c8.284 0 15-6.716 15-15v-85.805z" fill="#6e61b6"/><circle cx="248.5" cy="446.598" fill="#edf5fa" r="20.686"/><path d="m211.859 191.426h-74.642c-5.523 0-10-4.477-10-10v-84.642c0-5.523 4.477-10 10-10h74.642c5.523 0 10 4.477 10 10v84.642c0 5.523-4.477 10-10 10z" fill="#e592b8"/><path d="m221.859 86.784h-22c5.523 0 10 4.477 10 10v84.642c0 5.523-4.477 10-10 10h22c5.523 0 10-4.477 10-10v-84.642c0-5.523-4.477-10-10-10z" fill="#e175a5"/></g></svg>