<svg xmlns="http://www.w3.org/2000/svg" xmlns:xlink="http://www.w3.org/1999/xlink" version="1.1" id="Layer_1" x="0px" y="0px" viewBox="0 0 1080 1080" style="enable-background:new 0 0 1080 1080;" xml:space="preserve">
<style xmlns="http://www.w3.org/2000/svg" type="text/css">
	.st0{fill:none;stroke:#C1C1C1;stroke-miterlimit:10;stroke-dasharray:11.9518,11.9518;}
	.st1{fill:#F7F7F7;}
	.st2{fill:#F2F2F2;}
	.st3{fill:#B6E7FF;}
	.st4{fill:#FFFFFF;}
	.st5{fill:#5AB8FF;}
	.st6{fill:#e29ff5;}
	.st7{fill:#8AD2FF;}
	.st8{fill:none;stroke:#F7F7F7;stroke-miterlimit:10;}
	.st9{fill:#FFE3CA;}
	.st10{fill:#0D4972;}
	.st11{fill:#0E538C;}
	.st12{fill:#2A94F4;}
	.st13{fill:#85DDFF;}
	.st14{fill:#41AAF7;}
	.st15{fill:#CCE9FF;}
</style>
<g xmlns="http://www.w3.org/2000/svg">
	<circle class="st0" cx="894.2" cy="301.4" r="125.5"/>
</g>
<g xmlns="http://www.w3.org/2000/svg">
	<path class="st1" d="M826.8,252.8c27.7,9.8,55.3,21.7,74.7,40.4c19.4,18.7,29.1,45.6,17.5,68.1c-15.6,30.1-64.8,47.6-65.1,80.2   c-0.2,23.3,26.6,41.2,53.6,49.6c27,8.5,56.9,11.5,81.4,23.9c37,18.7,54.4,54.9,61.5,89.7c7.4,36.1,4.4,77.2-27.3,103.3   C983.8,740.6,918.6,737,862.9,730c-74.4-9.3-148.5-20.1-222.6-31c-162.4-23.8-324.8-47.7-487.2-71.5c-17.4-2.6-35.5-5.4-49.7-13.9   c-28.1-17-30.5-52.1-14.1-77.2c16.3-25.1,46.5-42.1,76.5-56.8c30-14.7,61.7-28.7,84.2-50.5c22.5-21.8,33.7-54,16.6-78.8   c-14.4-21-45.4-32.2-58.9-53.6c-17.8-28.2,2.7-64.1,34.9-82.1S680.2,201.1,826.8,252.8z"/>
</g>
<path xmlns="http://www.w3.org/2000/svg" class="st2" d="M1029.1,1004.6H62.9c-5.2,0-9.5-4.3-9.5-9.5v-36.2c0-5.2,4.3-9.5,9.5-9.5h966.2c5.2,0,9.5,4.3,9.5,9.5v36.2  C1038.6,1000.3,1034.3,1004.6,1029.1,1004.6z"/>
<g xmlns="http://www.w3.org/2000/svg">
	<g>
		<path class="st3" d="M589.1,977H219.7c-31,0-56.2-25.1-56.2-56.2V161.2c0-31,25.1-56.2,56.2-56.2h369.4c31,0,56.2,25.1,56.2,56.2    v759.7C645.2,951.9,620.1,977,589.1,977z"/>
		<path class="st4" d="M584.4,950.4h-360c-18.9,0-34.2-15.3-34.2-34.2V167.5c0-18.9,15.3-34.2,34.2-34.2h360    c18.9,0,34.2,15.3,34.2,34.2v748.7C618.7,935.1,603.3,950.4,584.4,950.4z"/>
		<path class="st3" d="M267.4,129.9l22.4,28.5c9,11.4,22.1,18,36,18h155.6c13.9,0,27-6.6,36-18l22.4-28.5H267.4z"/>
	</g>
	<g>
		<path class="st5" d="M124.8,229.6H684c9.4,0,17,7.6,17,17V327c0,9.4-7.6,17-17,17H124.8c-9.4,0-17-7.6-17-17v-80.4    C107.8,237.2,115.4,229.6,124.8,229.6z"/>
		<circle class="st4" cx="160" cy="287" r="35"/>
		<g>
			<path class="st3" d="M534,272H225c-3.3,0-6-2.7-6-6l0,0c0-3.3,2.7-6,6-6h309c3.3,0,6,2.7,6,6l0,0C540,269.3,537.3,272,534,272z"/>
			<path class="st3" d="M534,295H225c-3.3,0-6-2.7-6-6l0,0c0-3.3,2.7-6,6-6h309c3.3,0,6,2.7,6,6l0,0C540,292.3,537.3,295,534,295z"/>
			<path class="st3" d="M534,318H225c-3.3,0-6-2.7-6-6l0,0c0-3.3,2.7-6,6-6h309c3.3,0,6,2.7,6,6l0,0C540,315.3,537.3,318,534,318z"/>
		</g>
		<polygon class="st6" points="645,191.9 672.8,253 737.3,259 686.3,306.5 702.1,367.5 645,332.1 587.9,367.5 603.7,306.5     552.7,259 617.2,253   "/>
	</g>
	<g>
		<path class="st7" d="M207.3,381.5h393.6c6.7,0,12.1,5.4,12.1,12.1V452c0,6.7-5.4,12.1-12.1,12.1H207.3c-6.7,0-12.1-5.4-12.1-12.1    v-58.4C195.1,386.9,200.6,381.5,207.3,381.5z"/>
		<circle class="st4" cx="232.9" cy="423" r="25.3"/>
		<g>
			<path class="st3" d="M503.1,412.1H279.8c-2.4,0-4.3-2-4.3-4.3l0,0c0-2.4,2-4.3,4.3-4.3h223.3c2.4,0,4.3,2,4.3,4.3l0,0     C507.4,410.2,505.5,412.1,503.1,412.1z"/>
			<path class="st3" d="M503.1,428.8H279.8c-2.4,0-4.3-2-4.3-4.3l0,0c0-2.4,2-4.3,4.3-4.3h223.3c2.4,0,4.3,2,4.3,4.3l0,0     C507.4,426.8,505.5,428.8,503.1,428.8z"/>
			<path class="st3" d="M503.1,445.4H279.8c-2.4,0-4.3-2-4.3-4.3l0,0c0-2.4,2-4.3,4.3-4.3h223.3c2.4,0,4.3,2,4.3,4.3l0,0     C507.4,443.4,505.5,445.4,503.1,445.4z"/>
		</g>
		<polygon class="st8" points="565,391.3 574.9,413.2 598,415.3 579.7,432.3 585.4,454.1 565,441.4 544.6,454.1 550.3,432.3     532,415.3 555.1,413.2   "/>
	</g>
	<g>
		<path class="st7" d="M207.3,489h393.6c6.7,0,12.1,5.4,12.1,12.1v58.4c0,6.7-5.4,12.1-12.1,12.1H207.3c-6.7,0-12.1-5.4-12.1-12.1    v-58.4C195.1,494.4,200.6,489,207.3,489z"/>
		<circle class="st4" cx="232.9" cy="530.5" r="25.3"/>
		<g>
			<path class="st3" d="M503.1,519.6H279.8c-2.4,0-4.3-2-4.3-4.3l0,0c0-2.4,2-4.3,4.3-4.3h223.3c2.4,0,4.3,2,4.3,4.3l0,0     C507.4,517.7,505.5,519.6,503.1,519.6z"/>
			<path class="st3" d="M503.1,536.3H279.8c-2.4,0-4.3-2-4.3-4.3l0,0c0-2.4,2-4.3,4.3-4.3h223.3c2.4,0,4.3,2,4.3,4.3l0,0     C507.4,534.3,505.5,536.3,503.1,536.3z"/>
			<path class="st3" d="M503.1,552.9H279.8c-2.4,0-4.3-2-4.3-4.3l0,0c0-2.4,2-4.3,4.3-4.3h223.3c2.4,0,4.3,2,4.3,4.3l0,0     C507.4,550.9,505.5,552.9,503.1,552.9z"/>
		</g>
		<polygon class="st8" points="565,498.8 574.9,520.7 598,522.8 579.7,539.8 585.4,561.6 565,548.9 544.6,561.6 550.3,539.8     532,522.8 555.1,520.7   "/>
	</g>
	<g>
		<path class="st7" d="M207.3,596.5h393.6c6.7,0,12.1,5.4,12.1,12.1V667c0,6.7-5.4,12.1-12.1,12.1H207.3c-6.7,0-12.1-5.4-12.1-12.1    v-58.4C195.1,601.9,200.6,596.5,207.3,596.5z"/>
		<circle class="st4" cx="232.9" cy="638" r="25.3"/>
		<g>
			<path class="st3" d="M503.1,627.1H279.8c-2.4,0-4.3-2-4.3-4.3l0,0c0-2.4,2-4.3,4.3-4.3h223.3c2.4,0,4.3,2,4.3,4.3l0,0     C507.4,625.2,505.5,627.1,503.1,627.1z"/>
			<path class="st3" d="M503.1,643.8H279.8c-2.4,0-4.3-2-4.3-4.3l0,0c0-2.4,2-4.3,4.3-4.3h223.3c2.4,0,4.3,2,4.3,4.3l0,0     C507.4,641.8,505.5,643.8,503.1,643.8z"/>
			<path class="st3" d="M503.1,660.4H279.8c-2.4,0-4.3-2-4.3-4.3l0,0c0-2.4,2-4.3,4.3-4.3h223.3c2.4,0,4.3,2,4.3,4.3l0,0     C507.4,658.4,505.5,660.4,503.1,660.4z"/>
		</g>
		<polygon class="st8" points="565,606.3 574.9,628.2 598,630.3 579.7,647.3 585.4,669.1 565,656.4 544.6,669.1 550.3,647.3     532,630.3 555.1,628.2   "/>
	</g>
	<g>
		<path class="st7" d="M207.3,704h393.6c6.7,0,12.1,5.4,12.1,12.1v58.4c0,6.7-5.4,12.1-12.1,12.1H207.3c-6.7,0-12.1-5.4-12.1-12.1    v-58.4C195.1,709.4,200.6,704,207.3,704z"/>
		<circle class="st4" cx="232.9" cy="745.5" r="25.3"/>
		<g>
			<path class="st3" d="M503.1,734.6H279.8c-2.4,0-4.3-2-4.3-4.3l0,0c0-2.4,2-4.3,4.3-4.3h223.3c2.4,0,4.3,2,4.3,4.3l0,0     C507.4,732.7,505.5,734.6,503.1,734.6z"/>
			<path class="st3" d="M503.1,751.3H279.8c-2.4,0-4.3-2-4.3-4.3l0,0c0-2.4,2-4.3,4.3-4.3h223.3c2.4,0,4.3,2,4.3,4.3l0,0     C507.4,749.3,505.5,751.3,503.1,751.3z"/>
			<path class="st3" d="M503.1,767.9H279.8c-2.4,0-4.3-2-4.3-4.3l0,0c0-2.4,2-4.3,4.3-4.3h223.3c2.4,0,4.3,2,4.3,4.3l0,0     C507.4,765.9,505.5,767.9,503.1,767.9z"/>
		</g>
		<polygon class="st8" points="565,713.8 574.9,735.7 598,737.8 579.7,754.8 585.4,776.6 565,763.9 544.6,776.6 550.3,754.8     532,737.8 555.1,735.7   "/>
	</g>
	<g>
		<path class="st7" d="M207.3,811.5h393.6c6.7,0,12.1,5.4,12.1,12.1V882c0,6.7-5.4,12.1-12.1,12.1H207.3c-6.7,0-12.1-5.4-12.1-12.1    v-58.4C195.1,816.9,200.6,811.5,207.3,811.5z"/>
		<circle class="st4" cx="232.9" cy="853" r="25.3"/>
		<g>
			<path class="st3" d="M503.1,842.1H279.8c-2.4,0-4.3-2-4.3-4.3l0,0c0-2.4,2-4.3,4.3-4.3h223.3c2.4,0,4.3,2,4.3,4.3l0,0     C507.4,840.2,505.5,842.1,503.1,842.1z"/>
			<path class="st3" d="M503.1,858.8H279.8c-2.4,0-4.3-2-4.3-4.3l0,0c0-2.4,2-4.3,4.3-4.3h223.3c2.4,0,4.3,2,4.3,4.3l0,0     C507.4,856.8,505.5,858.8,503.1,858.8z"/>
			<path class="st3" d="M503.1,875.4H279.8c-2.4,0-4.3-2-4.3-4.3l0,0c0-2.4,2-4.3,4.3-4.3h223.3c2.4,0,4.3,2,4.3,4.3l0,0     C507.4,873.4,505.5,875.4,503.1,875.4z"/>
		</g>
		<polygon class="st8" points="565,821.3 574.9,843.2 598,845.3 579.7,862.3 585.4,884.1 565,871.4 544.6,884.1 550.3,862.3     532,845.3 555.1,843.2   "/>
	</g>
</g>
<g xmlns="http://www.w3.org/2000/svg">
	<path class="st9" d="M661.7,315.6v-11.2c0,0,4.1-11.2,8.1-19.3c-3,1-8.1,8.1-8.1,8.1s-2-17.3,0-21.3   c-13.2,11.2-13.2,15.2-13.2,15.2l5.1,18.3l-1,14.2L661.7,315.6z"/>
	<path class="st9" d="M852.5,576.4l6.1,11.2c0,0,12.2,8.1,12.2,12.2c0,4.1,0,9.1,0,9.1l-9.1,11.2c0,0-8.1-22.3-9.1-21.3   c-1,5.1-1,11.2-3,12.2c-1-6.1,2-21.3-2-26.4C843.3,579.4,852.5,576.4,852.5,576.4z"/>
	
		<rect x="817.3" y="913.1" transform="matrix(-0.9969 7.825331e-02 -7.825331e-02 -0.9969 1723.3162 1798.1506)" class="st9" width="18.3" height="39.6"/>
	<path class="st10" d="M837.1,951.9c7.7,7.5,13.3,13.2,13.6,17.3c-6.7,5.6-28.6,11.4-39.2,6.1c-2.1-14.1,7.4-22,7.4-22L837.1,951.9z   "/>
	
		<rect x="708.6" y="912.9" transform="matrix(-1 -4.491042e-11 4.491042e-11 -1 1435.549 1865.3744)" class="st9" width="18.3" height="39.6"/>
	<path class="st6" d="M739.3,533.2C727.1,570.8,661.5,819,701,929.6c16.7,11.7,35,0.5,35,0.5s60.1-257.9,48.9-323.8   s-12.7-73.1-12.7-73.1H739.3z"/>
	
		<rect x="760.1" y="383" transform="matrix(-1 -4.487267e-11 4.487267e-11 -1 1534.9457 797.5547)" class="st9" width="14.7" height="31.5"/>
	<path class="st9" d="M742.5,375.3c0,14.9,5.7,27.1,17.8,27.1s25.8-12.1,25.8-27.1s-9.8-27.1-21.8-27.1S742.5,360.4,742.5,375.3z"/>
	<path class="st11" d="M737,354c-1.6,10.8,1.4,14,5.1,14.3c5.2,0.3,9.7,3.7,11.3,8.7c3.2,10.1,8.3,19.9,16.9,25   c11.3,5.7,44.4-24.2,28.3-50.9C782.5,324.5,738.6,346.7,737,354z"/>
	<path class="st12" d="M774.8,414.5c18.3,2,44.7,15.2,44.7,15.2s30.4,115.7,36.5,151.2c-9.1,6.1-12.2,9.1-12.2,9.1l-34.5-113.7   l-13.2,56.8h-56.8l-13.2-73.1c0,0-85.2-41.6-78.1-144.1c16.2-7.1,16.2-7.1,16.2-7.1s-4.1,108.6,75.1,106.6   C739.3,415.5,764.7,410.4,774.8,414.5z"/>
	<path class="st6" d="M796,533.2c35.5,61.9,61.2,314.2,44.9,400.5c-16.7,13.7-30.4,0-30.4,0s-41.9-227.9-40.9-323.3   c-4.1-56.8,0-77.1,0-77.1H796z"/>
	<path class="st10" d="M726.9,952.5c7.1,8.1,12.2,14.2,12.2,18.3c-7.1,5.1-29.4,9.1-39.6,3c-1-14.2,9.1-21.3,9.1-21.3H726.9z"/>
	<g>
		<path class="st11" d="M774.3,346.6c3.6-10.2,14.7-16.7,25.5-16.6s21.1,6.1,27.9,14.4c6.9,8.4,10.7,18.9,12.6,29.5    c1.5,8.4,1.9,17.6-2.3,25.1c-3.7,6.7-10.4,11.2-14.3,17.7c-4.7,8-4.6,18-2.6,27s6,17.5,8.5,26.4c4.2,15,4.2,31.9-3.9,45.1    c-8.1,13.2-25.9,21.1-40.1,14.7c-10.6-4.8-17.1-16.3-18.1-27.8c-1.1-11.6,2.6-23.1,7.8-33.4c5.2-10.4,12-19.8,17.9-29.9    c5-8.7,9.5-18.2,9.1-28.3c-0.6-12.9-8.9-23.8-15.8-34.7c-6.9-10.9-12.8-24.3-8-36.3"/>
	</g>
</g>
<g xmlns="http://www.w3.org/2000/svg">
	<path class="st3" d="M964.8,976.4c-20.2,0-28.7-16.1-32-33.2c-3.8-19.3-1-39.8-1-39.8h66c0,0,0.1,0.8,0.2,2.2   C999.3,917.8,1003.3,976.4,964.8,976.4z"/>
	<path class="st13" d="M997.8,903.5c0,1.4-14.8,2.6-33,2.6c-18.2,0-33-1.2-33-2.6c0-1.4,14.8-2.6,33-2.6   C983,900.9,997.8,902,997.8,903.5z"/>
	<path class="st12" d="M1054.2,720.4c0,0-34.8,53-55.7,85.3c-20.9,32.3-26.4,39.1-28.9,49.5c-2.5,10.4-4.7,49-4.7,49h-1.5   c0,0,0.5-32.7,2.4-43.7c1.8-10.6-0.1-14.5-1.6-25.7c-1.5-11.2-3.5-29.1,7.8-41.5c11.3-12.4,8.3-24.6,12.3-32.8   c4-8.2,34.8-18.2,38.8-26.6C1027.1,725.4,1044.5,720.2,1054.2,720.4z"/>
	<path class="st14" d="M1054.2,720.4c0,0-10.9,12.4-18.4,16.7c-7.5,4.2-10.9,0.5-16.7,10.7c-5.7,10.2-5.9,14.7-11.2,19.9   c-5.2,5.2-11.5,5.5-12,16.9c-0.5,11.4,2.5,21.1,2.5,21.1S1052,723.1,1054.2,720.4z"/>
	<path class="st12" d="M967.7,904.2h1.6c0,0,0.5-10.6,4.7-15.7c2.7-3.3,14.2-7.1,25.6-11.6c6.3-2.5,12.5-5.2,17.2-8.2   c13.2-8.4,25.9-35.5,27-40.4c0.4-1.7,0.6-2.7,0.5-3.4v0c0-1.3-0.7-1.5-1.8-2.8c-0.5-0.6-2.2-0.4-4.1,0.2   c-5.7,1.7-10.5,5.7-13.5,10.8c-2.8,4.8-7.2,10.8-12.6,12.2c-9.4,2.5-8.6,4-12,13.6c-3.4,9.5-12.1,11.1-23,22.3   C966.3,892.4,967.7,904.2,967.7,904.2z"/>
	<path class="st14" d="M999.5,876.9c6.3-2.5,12.5-5.2,17.2-8.2c13.2-8.4,25.9-35.5,27-40.4c0.4-1.7,0.6-2.7,0.5-3.4   c0,0.3-0.7,4.6-7.6,7.5c-7.2,3-8.6,3-9.5,7.5c-0.9,4.5-1.7,9.4-5.5,10.3c-3.7,0.9-6.1-3.3-9,3.6c-3,6.9-4.4,9.2-7.1,10.1   c-2.7,0.9-4.8-0.5-5.4,4.8C999.8,871.9,999.6,875,999.5,876.9z"/>
	<path class="st12" d="M956.2,904.2h-1.8c0,0-3.6-65.6-8.6-71.7c-3.2-3.9-13.8-11-27.3-16.3c-7.4-2.9-14.8-6.2-20.4-9.7   c-15.7-10-30.6-42.1-31.9-47.8c-0.5-2-0.7-3.2-0.6-4v0c0-1.5,0.8-1.8,2.1-3.3c0.6-0.8,2.5-0.5,4.9,0.2c6.8,2.1,12.5,6.7,16,12.8   c3.3,5.7,8.5,12.7,14.9,14.5c11.1,3,10.2,4.8,14.2,16.1c4.1,11.3,14.4,13.1,27.3,26.4C957.9,834.6,956.2,904.2,956.2,904.2z"/>
	<path class="st14" d="M918.5,816.2c-7.4-2.9-14.8-6.2-20.4-9.7c-15.7-10-30.6-42.1-31.9-47.8c-0.5-2-0.7-3.2-0.6-4   c0,0.4,0.8,5.5,8.9,8.8c8.5,3.5,10.1,3.5,11.3,8.9c1.1,5.3,2,11.1,6.5,12.2c4.4,1.1,7.2-3.9,10.7,4.2c3.5,8.1,5.2,10.9,8.4,12   c3.2,1.1,5.7-0.6,6.4,5.7C918.1,810.4,918.3,814,918.5,816.2z"/>
	<g>
		<path class="st15" d="M964.8,976.4c-20.2,0-28.7-16.1-32-33.2c19.8-7.5,44.6-19.5,65.3-37.6C999.3,917.8,1003.3,976.4,964.8,976.4    z"/>
	</g>
</g>
<g xmlns="http://www.w3.org/2000/svg">
	<path class="st3" d="M119.1,970.9c-16,0-22.7-12.8-25.4-26.3c-3-15.3-0.8-31.5-0.8-31.5h52.3c0,0,0.1,0.6,0.2,1.7   C146.5,924.5,149.6,970.9,119.1,970.9z"/>
	<path class="st13" d="M145.3,913.1c0,1.1-11.7,2.1-26.2,2.1c-14.5,0-26.2-0.9-26.2-2.1c0-1.1,11.7-2.1,26.2-2.1   C133.6,911.1,145.3,912,145.3,913.1z"/>
	<path class="st12" d="M194.7,768.1c0,0-27.6,42-44.2,67.6c-16.6,25.6-20.9,30.9-22.9,39.2c-2,8.3-3.7,38.8-3.7,38.8h-1.2   c0,0,0.4-25.9,1.9-34.7c1.4-8.4-0.1-11.5-1.3-20.3c-1.2-8.9-2.8-23.1,6.2-32.9c9-9.9,6.6-19.5,9.8-26c3.2-6.5,27.6-14.4,30.7-21.1   C173.2,772,187,767.9,194.7,768.1z"/>
	<path class="st14" d="M194.7,768.1c0,0-8.7,9.9-14.6,13.2c-5.9,3.4-8.7,0.4-13.2,8.5c-4.5,8.1-4.7,11.6-8.9,15.8   c-4.2,4.1-9.1,4.3-9.5,13.4c-0.4,9.1,2,16.8,2,16.8S192.9,770.2,194.7,768.1z"/>
	<path class="st12" d="M117,913.7h-1.5c0,0-2.9-52-6.8-56.8c-2.5-3.1-10.9-8.7-21.6-12.9c-5.9-2.3-11.7-4.9-16.2-7.7   c-12.4-7.9-24.3-33.3-25.3-37.9c-0.4-1.6-0.5-2.5-0.5-3.2v0c0-1.2,0.6-1.4,1.7-2.6c0.5-0.6,2-0.4,3.9,0.2   c5.4,1.6,9.9,5.3,12.7,10.2c2.6,4.5,6.7,10.1,11.8,11.5c8.8,2.3,8,3.8,11.3,12.7c3.2,8.9,11.4,10.4,21.6,20.9   C118.3,858.5,117,913.7,117,913.7z"/>
	<path class="st14" d="M87.1,844c-5.9-2.3-11.7-4.9-16.2-7.7c-12.4-7.9-24.3-33.3-25.3-37.9c-0.4-1.6-0.5-2.5-0.5-3.2   c0,0.3,0.6,4.3,7.1,7c6.7,2.8,8,2.8,8.9,7c0.9,4.2,1.6,8.8,5.1,9.7c3.5,0.9,5.7-3.1,8.5,3.4c2.8,6.4,4.1,8.6,6.7,9.5   c2.6,0.9,4.5-0.4,5.1,4.5C86.8,839.3,87,842.2,87.1,844z"/>
	<g>
		<path class="st15" d="M119.1,970.9c-16,0-22.7-12.8-25.4-26.3c15.7-5.9,35.4-15.5,51.7-29.8C146.5,924.5,149.6,970.9,119.1,970.9z    "/>
	</g>
</g>
</svg>